PathFileType	4	(X/Y/Z)	RBDS03static.trc
DataRate	CameraRate	NumFrames	NumMarkers	Units	OrigDataRate	OrigDataStartFrame	OrigNumFrames
150.000000	150.000000	4	48	mm	150.000000	93	150
Frame#	Time	L.Ankle			L.Ankle.Medial			L.ASIS			L.GTR			L.Heel.Bottom			L.Heel.Lateral			L.Heel.Top			L.HF			L.Iliac.Crest			L.Knee			L.Knee.Medial			L.MT1			L.MT2			L.MT5			L.PSIS			L.Shank.Bottom.Lateral			L.Shank.Bottom.Medial			L.Shank.Top.Lateral			L.Shank.Top.Medial			L.Thigh.Bottom.Lateral			L.Thigh.Bottom.Medial			L.Thigh.Top.Lateral			L.Thigh.Top.Medial			L.TT			R.Ankle			R.Ankle.Medial			R.ASIS			R.GTR			R.Heel.Bottom			R.Heel.Lateral			R.Heel.Top			R.HF			R.Iliac.Crest			R.Knee			R.Knee.Medial			R.MT1			R.MT2			R.MT5			R.PSIS			R.Shank.Bottom.Lateral			R.Shank.Bottom.Medial			R.Shank.Top.Lateral			R.Shank.Top.Medial			R.Thigh.Bottom.Lateral			R.Thigh.Bottom.Medial			R.Thigh.Top.Lateral			R.Thigh.Top.Medial			R.TT			
		X1	Y1	Z1	X2	Y2	Z2	X3	Y3	Z3	X4	Y4	Z4	X5	Y5	Z5	X6	Y6	Z6	X7	Y7	Z7	X8	Y8	Z8	X9	Y9	Z9	X10	Y10	Z10	X11	Y11	Z11	X12	Y12	Z12	X13	Y13	Z13	X14	Y14	Z14	X15	Y15	Z15	X16	Y16	Z16	X17	Y17	Z17	X18	Y18	Z18	X19	Y19	Z19	X20	Y20	Z20	X21	Y21	Z21	X22	Y22	Z22	X23	Y23	Z23	X24	Y24	Z24	X25	Y25	Z25	X26	Y26	Z26	X27	Y27	Z27	X28	Y28	Z28	X29	Y29	Z29	X30	Y30	Z30	X31	Y31	Z31	X32	Y32	Z32	X33	Y33	Z33	X34	Y34	Z34	X35	Y35	Z35	X36	Y36	Z36	X37	Y37	Z37	X38	Y38	Z38	X39	Y39	Z39	X40	Y40	Z40	X41	Y41	Z41	X42	Y42	Z42	X43	Y43	Z43	X44	Y44	Z44	X45	Y45	Z45	X46	Y46	Z46	X47	Y47	Z47	X48	Y48	Z48	

94	0.62	716.8043212890625	111.3422698974609	1045.353759765625	727.3693237304688	119.6789169311523	1125.75830078125	848.1016235351563	1064.725708007813	1103.842651367188	781.62109375	959.82568359375	1050.077392578125	638.1865234375	42.48672485351563	1086.643188476563	674.6044921875	57.99032211303711	1043.19091796875	649.129638671875	92.70397186279297	1089.776123046875	721.7570190429688	496.3099365234375	1048.0390625	765.4044799804688	1121.850830078125	1064.366333007813	720.7340087890625	552.2496337890625	1055.654296875	722.0296630859375	536.1432495117188	1169.90283203125	859.1266479492188	62.1666259765625	1140.563110351563	866.9944458007813	73.57181549072266	1099.819458007813	835.1304931640625	55.39499664306641	1031.813354492188	686.4915161132813	1080.540405273438	1181.502075195313	710.3142700195313	186.348388671875	1043.572509765625	666.7891845703125	185.4794311523438	1076.425903320313	701.418701171875	265.3131713867188	1032.649169921875	658.756103515625	265.4260559082031	1065.00927734375	735.914794921875	643.9933471679688	1048.783813476563	676.8650512695313	650.1810913085938	1093.226684570313	737.8467407226563	753.9730224609375	1039.235595703125	683.2180786132813	760.1325073242188	1083.243408203125	772.5320434570313	476.7879333496094	1094.720458984375	708.5630493164063	110.2829971313477	1411.253540039063	728.0459594726563	127.4804534912109	1333.41796875	871.38623046875	1072.161987304688	1316.494384765625	812.162109375	968.1549072265625	1385.871215820313	631.6143798828125	45.17033004760742	1364.9716796875	668.6866455078125	66.56442260742188	1410.975830078125	641.8480224609375	93.77761077880859	1364.441284179688	724.2169189453125	498.7615356445313	1409.676391601563	804.6790771484375	1134.514282226563	1362.848510742188	727.8485107421875	565.7026977539063	1399.935424804688	729.9752197265625	541.569580078125	1286.137939453125	844.805419921875	58.13901138305664	1322.94873046875	861.8707275390625	75.79920196533203	1371.214965820313	824.9588623046875	51.38391494750977	1437.79345703125	696.6585083007813	1083.974243164063	1263.993896484375	694.6581420898438	179.8673248291016	1413.30810546875	662.11279296875	183.2533416748047	1373.040649414063	688.3516845703125	264.1518859863281	1423.076538085938	655.7300415039063	263.4344787597656	1380.011474609375	765.537109375	674.209228515625	1406.404052734375	699.0465698242188	675.4724731445313	1375.000732421875	763.9661254882813	785.2742309570313	1409.089477539063	702.8580322265625	785.6958618164063	1375.712890625	778.6058349609375	478.319580078125	1368.609008789063	
95	0.6266666666666667	716.8011474609375	111.3365783691406	1045.35498046875	727.3736572265625	119.6845321655273	1125.764526367188	848.0942993164063	1064.724487304688	1103.833618164063	781.59228515625	959.8336181640625	1050.067504882813	638.1895141601563	42.48632431030273	1086.649169921875	674.5953979492188	57.98812866210938	1043.1923828125	649.12841796875	92.69943237304688	1089.796508789063	721.745361328125	496.3075866699219	1048.040771484375	765.4000244140625	1121.850463867188	1064.3681640625	720.7252197265625	552.2363891601563	1055.654174804688	722.0308227539063	536.1198120117188	1169.89453125	859.1246337890625	62.18057250976563	1140.565307617188	866.9896240234375	73.57215118408203	1099.8193359375	835.1251831054688	55.38573837280273	1031.820556640625	686.4869384765625	1080.536376953125	1181.49169921875	710.308349609375	186.3482360839844	1043.559692382813	666.7783813476563	185.4813079833984	1076.42431640625	701.4058227539063	265.3124694824219	1032.653442382813	658.7509155273438	265.4272155761719	1065.004150390625	735.90283203125	643.9923095703125	1048.781127929688	676.8484497070313	650.181640625	1093.231201171875	737.824951171875	753.9725341796875	1039.237426757813	683.2078857421875	760.1387939453125	1083.2490234375	772.5225219726563	476.7781982421875	1094.699340820313	708.557861328125	110.2813873291016	1411.254760742188	728.046875	127.4864196777344	1333.416259765625	871.3901977539063	1072.169311523438	1316.484375	812.1612548828125	968.1572875976563	1385.850708007813	631.6170654296875	45.16355133056641	1364.970947265625	668.6997680664063	66.56790161132813	1410.978637695313	641.8428955078125	93.78584289550781	1364.433715820313	724.2135009765625	498.7479248046875	1409.65966796875	804.6805419921875	1134.513793945313	1362.830932617188	727.8470458984375	565.7091674804688	1399.934936523438	729.9700927734375	541.5557861328125	1286.131713867188	844.8058471679688	58.13702011108398	1322.947998046875	861.8696899414063	75.79691314697266	1371.228149414063	824.951904296875	51.38341903686523	1437.781616210938	696.649658203125	1083.981201171875	1263.992431640625	694.651123046875	179.8607330322266	1413.306762695313	662.12060546875	183.2589111328125	1373.0390625	688.3602294921875	264.1411743164063	1423.063720703125	655.7322387695313	263.4348754882813	1380.011596679688	765.5338745117188	674.2135009765625	1406.388305664063	699.043212890625	675.4738159179688	1374.98828125	763.961181640625	785.258544921875	1409.064819335938	702.849853515625	785.7002563476563	1375.700927734375	778.6151733398438	478.3219909667969	1368.598754882813	
96	0.6333333333333334	716.8037109375	111.3450469970703	1045.352416992188	727.327880859375	119.841194152832	1126.164794921875	848.0902709960938	1064.723754882813	1103.835815429688	781.5814208984375	959.83544921875	1050.069580078125	638.1888427734375	42.49094390869141	1086.6337890625	674.6005249023438	57.9911994934082	1043.184326171875	649.1298217773438	92.70195007324219	1089.780395507813	721.7244262695313	496.3082275390625	1048.034912109375	765.39208984375	1121.85009765625	1064.349853515625	720.7166137695313	552.2400512695313	1055.650390625	722.0281372070313	536.1314697265625	1169.888549804688	859.1216430664063	62.18400573730469	1140.558349609375	866.98583984375	73.57711791992188	1099.813354492188	835.1345825195313	55.38558959960938	1031.82763671875	686.4745483398438	1080.537963867188	1181.477783203125	710.306396484375	186.3482513427734	1043.572631835938	666.7786254882813	185.4748382568359	1076.429321289063	701.4093627929688	265.3041687011719	1032.65966796875	658.7403564453125	265.42724609375	1065.00048828125	735.8920288085938	643.9861450195313	1048.77197265625	676.839111328125	650.1724243164063	1093.239013671875	737.8032836914063	753.9804077148438	1039.23291015625	683.193115234375	760.1378173828125	1083.253051757813	772.5169067382813	476.7910766601563	1094.7109375	708.5748291015625	110.2672805786133	1411.24267578125	728.0474243164063	127.4919738769531	1333.410278320313	871.3873901367188	1072.170043945313	1316.474487304688	812.1541748046875	968.162841796875	1385.853271484375	631.613037109375	45.17395401000977	1364.964965820313	668.6907348632813	66.56624603271484	1410.980224609375	641.8511352539063	93.77857971191406	1364.443237304688	724.2085571289063	498.7435913085938	1409.653442382813	804.681884765625	1134.533569335938	1362.826171875	727.8486328125	565.7095947265625	1399.913452148438	729.9677124023438	541.571533203125	1286.1240234375	844.806640625	58.13959121704102	1322.94580078125	861.8741455078125	75.79949951171875	1371.21923828125	824.9490356445313	51.38758850097656	1437.7880859375	696.6593627929688	1083.974975585938	1263.986572265625	694.6605834960938	179.8587951660156	1413.29541015625	662.1141967773438	183.2552490234375	1373.035034179688	688.3562622070313	264.1597290039063	1423.062622070313	655.7318115234375	263.4334716796875	1380.008666992188	765.527099609375	674.2142333984375	1406.384155273438	699.0382690429688	675.4736938476563	1374.981323242188	763.9497680664063	785.2733764648438	1409.062622070313	702.841064453125	785.6928100585938	1375.6787109375	778.6006469726563	478.3126831054688	1368.595581054688	
97	0.64	716.7921752929688	111.3424072265625	1045.348754882813	727.3688354492188	119.6784210205078	1125.754638671875	848.08984375	1064.720092773438	1103.834594726563	781.570068359375	959.8229370117188	1050.05712890625	638.1820678710938	42.48080062866211	1086.636840820313	674.5962524414063	57.9791374206543	1043.193237304688	649.1210327148438	92.70140838623047	1089.7822265625	721.716552734375	496.3074340820313	1048.040893554688	765.3931884765625	1121.852294921875	1064.354370117188	720.713134765625	552.231689453125	1055.654663085938	722.029052734375	536.1109619140625	1169.890747070313	859.1177978515625	62.17853164672852	1140.559692382813	866.9881591796875	73.57743072509766	1099.818237304688	835.1322021484375	55.38984680175781	1031.824829101563	686.4666137695313	1080.539794921875	1181.489501953125	710.2977294921875	186.3475494384766	1043.558349609375	666.7749633789063	185.4720306396484	1076.433227539063	701.3951416015625	265.3038330078125	1032.659057617188	658.7333984375	265.4183349609375	1065.017822265625	735.884033203125	643.9949340820313	1048.778564453125	676.8367919921875	650.1755981445313	1093.244384765625	737.7861938476563	753.966796875	1039.24365234375	683.1808471679688	760.137939453125	1083.260375976563	772.5118408203125	476.7913208007813	1094.711547851563	708.5672607421875	110.2953491210938	1411.263305664063	728.0439453125	127.4787445068359	1333.417358398438	871.380859375	1072.173095703125	1316.457275390625	812.1556396484375	968.1600341796875	1385.846313476563	631.617919921875	45.16727828979492	1364.971923828125	668.7013549804688	66.56428527832031	1410.978637695313	641.8449096679688	93.775634765625	1364.435546875	724.2111206054688	498.7469482421875	1409.65478515625	804.6914672851563	1134.53564453125	1362.8095703125	727.8401489257813	565.6995849609375	1399.915649414063	729.9393310546875	541.5739135742188	1286.10791015625	844.8045043945313	58.1401252746582	1322.946655273438	861.8712158203125	75.80238342285156	1371.215209960938	824.9558715820313	51.38652801513672	1437.795043945313	696.6542358398438	1083.978515625	1263.977783203125	694.6580200195313	179.8612365722656	1413.291625976563	662.1194458007813	183.2528839111328	1373.03662109375	688.3607177734375	264.1427307128906	1423.056030273438	655.728759765625	263.4368896484375	1380.003784179688	765.5225219726563	674.2084350585938	1406.367553710938	699.0311279296875	675.472412109375	1374.972778320313	763.9483032226563	785.2679443359375	1409.05517578125	702.8418579101563	785.6940307617188	1375.671508789063	778.604248046875	478.3114624023438	1368.578369140625	
